<svg xmlns="http://www.w3.org/2000/svg" width="512" height="512" fill="none" viewBox="0 0 512 512"><g clip-path="url(#a)"><rect width="512" height="512" fill="#fff"/><g clip-path="url(#b)"><path fill="#ff5c16" d="M404.558 409.702 330.9 387.749l-55.546 33.239-38.756-.017-55.58-33.222-73.624 21.953L85 334.022l22.396-83.994L85 179.015 107.396 91l115.042 68.802h67.076L404.558 91l22.396 88.015-22.396 71.013 22.396 83.994z"/><path fill="#ff5c16" d="m107.411 91 115.044 68.851-4.574 47.251zm73.626 243.053 50.618 38.599-50.618 15.094zm46.572-63.814-9.728-63.103-62.272 42.911-.034-.016v.031l.193 44.17 25.252-23.991zM404.558 91l-115.044 68.851 4.559 47.251zm-73.624 243.053-50.621 38.599 50.621 15.094zm25.445-83.993v-.032l-.014.017-62.275-42.909-9.728 63.103h46.57l25.269 23.988z"/><path fill="#e34807" d="M181.02 387.746 107.396 409.7 85 334.053h96.02zm46.572-117.524 14.063 91.229-19.491-50.726-66.428-16.498 25.267-24.003zm103.34 117.524 73.626 21.954 22.396-75.649h-96.022zm-46.57-117.524-14.063 91.229 19.489-50.726 66.432-16.498-25.283-24.003z"/><path fill="#ff8d5d" d="m85 334.022 22.396-83.994h48.162l.176 44.185 66.435 16.498 19.489 50.723-10.019 11.17-50.619-38.599H85zm341.954 0-22.396-83.994h-48.164l-.176 44.185-66.43 16.498-19.491 50.723 10.016 11.17 50.621-38.599h96.02zm-137.44-174.22h-67.076l-4.554 47.252 23.776 154.329h28.639l23.791-154.329z"/><path fill="#661800" d="M107.396 91 85 179.015l22.396 71.013h48.162l62.307-42.924zm106.278 197.545h-21.818l-11.879 11.657 42.206 10.473-8.509-22.147zM404.558 91l22.396 88.015-22.396 71.013h-48.164l-62.304-42.924zM298.312 288.545h21.849l11.879 11.671-42.254 10.495 8.526-22.183zm-22.975 102.336 4.979-18.244-10.019-11.17h-28.661l-10.017 11.17 4.976 18.244"/><path fill="#c0c4cd" d="M275.337 390.878v30.124H236.6v-30.124z"/><path fill="#e7ebf6" d="m181.037 387.715 55.594 33.271v-30.125l-4.978-18.241zm149.897 0-55.597 33.271v-30.125l4.979-18.241z"/></g></g><defs><clipPath id="a"><path fill="#fff" d="M0 0h512v512H0z"/></clipPath><clipPath id="b"><path fill="#fff" d="M85 91h342v330H85z"/></clipPath></defs></svg>

