<svg xmlns="http://www.w3.org/2000/svg" width="512" height="512" fill="none" viewBox="0 0 512 512"><g clip-path="url(#a)"><rect width="512" height="512" fill="#000"/><path fill="#3396ff" d="M155.015 192.835c55.772-54.447 146.197-54.447 201.971 0l6.712 6.552a6.856 6.856 0 0 1 0 9.859l-22.961 22.416a3.633 3.633 0 0 1-5.05 0l-9.237-9.017c-38.909-37.984-101.992-37.984-140.9 0l-9.892 9.656a3.63 3.63 0 0 1-5.049 0l-22.962-22.415a6.854 6.854 0 0 1 0-9.859zm249.457 46.358 20.437 19.949a6.856 6.856 0 0 1 0 9.859l-92.147 89.958c-2.789 2.721-7.31 2.721-10.099 0l-65.4-63.845a1.814 1.814 0 0 0-2.525 0l-65.399 63.845c-2.788 2.721-7.31 2.721-10.098 0L87.091 269a6.854 6.854 0 0 1 0-9.858l20.436-19.951c2.789-2.722 7.31-2.722 10.099 0l65.401 63.846a1.816 1.816 0 0 0 2.525 0l65.397-63.846c2.789-2.722 7.31-2.722 10.099 0l65.401 63.846a1.816 1.816 0 0 0 2.525 0l65.4-63.844c2.789-2.723 7.31-2.723 10.098 0"/></g><defs><clipPath id="a"><path fill="#fff" d="M0 0h512v512H0z"/></clipPath></defs></svg>